<svg id="Layer_1" data-name="Layer 1" xmlns="http://www.w3.org/2000/svg" xmlns:xlink="http://www.w3.org/1999/xlink" viewBox="0 0 892.17 955.17"><defs><style>.cls-1{fill:url(#New_Gradient_Swatch_1);}.cls-2{fill:url(#New_Gradient_Swatch_1-2);}.cls-3{fill:url(#New_Gradient_Swatch_1-3);}.cls-4{fill:url(#New_Gradient_Swatch_1-4);}</style><linearGradient id="New_Gradient_Swatch_1" x1="75.02" y1="477.58" x2="817.15" y2="477.58" gradientUnits="userSpaceOnUse"><stop offset="0.26" stop-color="#ffdb6e"/><stop offset="1" stop-color="#ffbc5e"/></linearGradient><linearGradient id="New_Gradient_Swatch_1-2" x1="561.32" y1="257.69" x2="582.66" y2="257.69" xlink:href="#New_Gradient_Swatch_1"/><linearGradient id="New_Gradient_Swatch_1-3" x1="613.46" y1="339.56" x2="693.66" y2="339.56" xlink:href="#New_Gradient_Swatch_1"/><linearGradient id="New_Gradient_Swatch_1-4" x1="597.9" y1="282.1" x2="662.74" y2="282.1" xlink:href="#New_Gradient_Swatch_1"/></defs><path class="cls-1" d="M83.4,850.33C76.77,846.85,75,841.2,75,834q.21-356.05.19-712.1c0-13.94,3.18-17,17.22-17q140.88,0,281.78,0c14.46,0,17.3,2.83,17.35,17.6.07,21.6.31,43.21-.12,64.8-.15,7.38,2,12.61,7.29,17.86q204.4,203.88,408.51,408c13.25,13.24,13.23,15.23-.15,28.61q-98.6,98.6-197.2,197.18c-10,10.06-14.18,10.09-24.1.16q-92.91-93-185.76-186c-2-2-3.18-4.92-4.74-7.42l-3,1.78c-.2,2.93-.57,5.86-.57,8.79q0,88.47.07,176.94c0,7.28-1.22,13.49-8.31,17.11h-185c-5.28-3.18-9.69-6.94-7.44-14,2.19-6.88,7.86-7.84,14.05-7.66,1.94,0,3.88,0,5.82,0l136.81,0H358c-16.46-19.67-31.28-37.54-46.36-55.18-1.31-1.53-4.29-2.29-6.5-2.3q-71.67-.21-143.35,0a11.94,11.94,0,0,0-8,3.73c-14.06,16.38-27.78,33-41.57,49.65a28.59,28.59,0,0,0-2.17,4.11c11.9,0,22.73.08,33.55,0,6.09-.06,11.94.33,14.58,7,2.71,6.81-1.64,10.88-6.32,14.67ZM308.13,147a21,21,0,0,0-.12,3.2c1.66,17.87,3.78,35.71,4.84,53.61.43,7.19,3.13,12.07,8,16.95q59.44,59,118.54,118.33c7.69,7.69,9,14.5,3.84,19.33-4.91,4.57-11.36,3.11-18.81-4.35Q367.58,297.14,310.7,240.22c-2.17-2.17-4.46-4.23-5.35-5.07l-98.53,98.54,381,381.6L687.55,616a77.74,77.74,0,0,1-6.6-5.44Q575.36,505.05,469.86,399.43a50.11,50.11,0,0,1-5.48-5.82c-3.33-4.68-3.64-9.77.51-13.93,4.38-4.4,9.64-4.09,14.52-.47a55.78,55.78,0,0,1,5.76,5.55q108.94,108.87,218,217.65c2.72,2.71,6.65,5.41,10.27,5.81,18.8,2.09,37.68,3.44,56.54,5,1.76.15,3.54,0,5.81,0ZM96.79,806.6l1.63.79c1.91-2.11,3.9-4.16,5.72-6.34,10.3-12.28,20.34-24.77,30.92-36.79,4.8-5.45,6.73-11,6.71-18.34q-.28-143.1-.07-286.19c0-2.67-.07-5.34.06-8,.35-7.08,3.82-10.81,10-10.92s10,3.53,10.41,10.48c.19,2.9.1,5.82.1,8.74q0,139.82.08,279.63c0,5.43-.81,10.42,7.85,10.34,42-.38,84-.28,126-.09,6.16,0,7.83-2.25,7.81-8.1-.14-59.47,0-118.94-.26-178.41a16.84,16.84,0,0,0-4.49-10.7q-98.07-98.63-196.54-196.86c-1.54-1.54-3.37-2.79-5.92-4.88Zm487.12-2.34a15,15,0,0,0,.12-2.76c-1.64-17.87-3.72-35.72-4.78-53.63-.43-7.15-3-12.09-8-17q-57.12-56.67-113.86-113.73Q323.56,483.25,189.58,349.47a24.67,24.67,0,0,0-13-6.39c-13.18-2-26.51-2.88-39.79-4.1-6.61-.6-13.23-1-18.83-1.38ZM286.17,143l-173.28,173c22.42,1.93,45.75,4.07,69.1,5.72,2.31.17,5.26-2.17,7.18-4.08Q239,268,288.45,218.17a13.87,13.87,0,0,0,3.47-9.46c-.73-14.28-2.07-28.53-3.34-42.77C287.84,157.62,286.84,149.33,286.17,143ZM779.76,636.22a41,41,0,0,0-4.77-1c-21.24-1.9-42.48-3.88-63.75-5.43-2.4-.18-5.57,1.53-7.4,3.35Q653.77,682.89,604.12,733a14.93,14.93,0,0,0-3.62,10.19c.8,14.51,2.33,29,3.65,43.46.71,7.77,1.53,15.52,2.26,22.89ZM369.37,808.89a43.23,43.23,0,0,0,.91-5q.08-88.07-.08-176.15c0-2.71-1.92-6-3.91-8C356,609,345.48,598.66,335,588.2c-2.65-2.65-5.35-5.24-8-7.86l-1.83.79v8.35c0,48.28.58,96.57-.3,144.84-.28,15.28,2.89,27.42,13.82,38.45C349.35,783.52,358.43,795.86,369.37,808.89ZM267.18,126.71H110.12a26.79,26.79,0,0,0,2.13,3.85c14,16.78,27.86,33.63,42.15,50.13,1.88,2.17,5.84,3.46,8.88,3.54q20.73.54,41.48,0c3.12-.08,7-1.18,9.14-3.25,17.38-16.92,34.44-34.18,51.57-51.36A16.48,16.48,0,0,0,267.18,126.71ZM98.75,145.93l-1.55,1.38V297.14c15-14.83,29.11-28.49,42.83-42.47,1.53-1.56,1.6-5,1.62-7.54.15-14.07.36-28.15-.11-42.21a19.85,19.85,0,0,0-4.08-11c-11.5-14.41-23.5-28.41-35.27-42.61A51.88,51.88,0,0,1,98.75,145.93Zm271.51,26.52c0-13.75.14-28.42-.27-43.08,0-1.15-3.91-3.06-6-3.12-11.39-.32-22.8-.19-34.21-.15-2.46,0-4.93.28-5.37.31ZM187.07,205c-6.78,0-13.31-.23-19.79.16-1.64.1-4.43,2.11-4.51,3.38-.44,7.09-.21,14.22-.21,20.77Z"/><path class="cls-2" d="M561.37,257.66c0-9.47-.12-18.94,0-28.41.12-7.17,4.19-11.69,10.17-11.88s10.77,4.39,10.87,11.32q.39,29.13,0,58.26c-.11,7.08-4.89,11.31-11,11.05s-9.92-4.67-10.05-11.94C561.24,276.59,561.37,267.12,561.37,257.66Z"/><path class="cls-3" d="M653.43,350.15c-9,0-18,.16-26.93,0s-13.3-4.21-13-11.22c.27-6.68,4.46-9.91,13.28-9.94q26.93-.1,53.86,0c8.71,0,12.94,3.44,13,10.19s-4.23,10.75-12.58,11C671.87,350.34,662.65,350.15,653.43,350.15Z"/><path class="cls-4" d="M662.74,260.05c-2.5,4-3.83,7.19-6.09,9.49q-19.65,20-39.71,39.55c-5,4.94-11.33,5.2-15.59,1.17-4.78-4.52-4.68-10.37.82-16,13.28-13.49,26.49-27.06,40.32-40,2.77-2.58,8.51-3.77,12.28-2.92C657.8,252.1,659.93,256.81,662.74,260.05Z"/></svg>